<svg width="73" height="86" viewBox="0 0 73 86" fill="none" xmlns="http://www.w3.org/2000/svg">
<path d="M66.5288 19.3231C65.9688 19.1082 65.3857 19.015 64.8475 19.0526C64.0698 19.107 63.4418 19.4242 63.0697 19.9433C60.8782 23.0268 59.0834 28.8501 57.6361 33.529C56.9718 35.6928 56.08 38.5885 55.4343 39.9628C54.7608 36.1125 55.5216 22.008 55.8167 16.5762L55.8215 16.4885C56.0261 12.7148 56.0536 12.053 56.0088 11.7624C55.6837 9.69233 54.8578 8.33352 53.553 7.72531C52.234 7.10851 50.5209 7.3814 48.6755 8.49677C47.7503 9.05875 47.4944 10.9878 46.7002 19.7314L46.6974 19.7699C46.26 24.5735 45.2536 35.634 44.0149 37.476C42.6174 34.8989 40.6948 20.2565 39.8649 13.9186C39.2841 9.47985 38.9459 6.93121 38.7186 6.1616C38.2398 4.54896 36.2189 3.17675 34.2179 3.10072C32.5524 3.0177 31.1858 3.86868 30.5336 5.34731C29.3134 6.71122 29.7445 11.2343 31.0932 21.9469C31.7352 27.0452 33.0604 37.5765 32.2264 38.7578C30.5635 38.5762 27.7088 31.9796 23.7404 19.1456C22.6271 15.5514 22.2825 14.4703 21.9405 13.9971C21.2664 12.3489 18.9755 11.0776 16.9214 11.2212C16.746 11.2335 16.5755 11.2564 16.407 11.2886C15.3318 11.5031 12.8783 12.4972 13.4013 17.0847C14.8501 23.4449 16.4238 28.1147 17.9511 32.6472L17.982 32.7379C18.8958 35.4527 19.7597 38.0178 20.5624 40.8646C22.4545 47.5858 21.7188 51.756 21.7098 51.803C21.6469 52.2323 21.515 52.4943 21.3165 52.5859C21.2451 52.6197 21.1536 52.6397 21.0504 52.6469C20.4508 52.6888 19.5514 52.2901 19.0879 52.0301C18.0292 49.9977 12.7576 40.3106 7.98089 38.967L7.80928 38.9162L7.63563 38.9324C5.88365 39.0986 4.59546 39.7637 3.80819 40.909C2.56064 42.7202 3.07705 45.0269 3.20232 45.4894L3.27274 45.6552C3.31173 45.7249 7.14238 52.7395 7.73524 56.0026C8.24647 58.8001 10.8915 61.8321 13.018 64.2681L13.1056 64.3672C13.7993 65.1644 14.398 65.8532 14.8701 66.4909C21.0405 72.9553 30.7988 78.393 30.8784 78.4366C32.0959 79.3392 32.7729 80.2111 32.8444 80.9617C32.8897 81.4531 32.6356 81.7468 32.6268 81.7569L32.4143 81.9794L33.7631 83.2963L59.508 81.4796L60.6056 76.4276C63.9997 62.1594 63.2911 49.9936 63.2799 49.9124C63.2923 49.4648 64.2437 45.1362 65.0086 41.6389L65.0312 41.5499C66.5561 34.5828 68.4526 25.9137 68.8163 22.6166C68.9745 21.2068 68.0766 19.9116 66.5288 19.3231Z" fill="#3B4262"/>
</svg>
