<svg width="90" height="119" viewBox="0 0 90 119" fill="none" xmlns="http://www.w3.org/2000/svg">
<path d="M88.7057 64.9088L86.9564 63.1672C82.7765 59.0037 75.9435 58.0969 70.8405 61.0168L59.9436 67.2176L62.2148 17.5526C62.2148 13.3891 58.8129 9.99999 54.6279 9.99999C53.7243 9.99999 52.8545 10.1589 52.0475 10.4498L52.3182 7.78463C52.3185 3.57305 48.8632 0.147949 44.6205 0.147949C40.6967 0.147949 37.4059 3.07775 36.9903 6.83467L29.9979 48.8942C29.906 49.4666 28.9105 49.4089 28.8043 49.0482L20.5457 15.328C19.6421 12.1916 16.7233 10.0002 13.4471 10.0002C11.1808 10.0002 9.07381 11.0153 7.6629 12.7857C6.25663 14.5561 5.7445 16.8338 6.26638 19.03L7.87073 25.8202C6.95733 25.7456 6.0393 25.8682 5.16465 26.1617C1.9077 27.2416 -0.0784295 30.4792 0.448313 33.8995L5.30961 61.7243C5.30961 72.7022 7.24262 80.825 8.86623 85.703C9.78913 88.4859 10.2579 91.4132 10.2579 94.403C10.2579 97.0056 9.89536 99.5962 9.17541 102.098L5.4061 115.236C5.19341 115.979 5.34324 116.777 5.80713 117.395C6.27588 118.011 7.00558 118.375 7.78351 118.375H52.3182C53.1156 118.375 53.8597 117.994 54.3236 117.352C54.7924 116.71 54.9181 115.883 54.6666 115.132C54.6425 115.067 52.5743 108.707 54.5314 100.055C57.0153 98.0493 65.7085 91.0114 68.8303 88.1733C73.9912 83.4805 88.1305 68.9811 88.7298 68.3655C89.6722 67.4007 89.6625 65.8613 88.7057 64.9088Z" fill="#3B4262"/>
</svg>
